<?xml version="1.0" encoding="UTF-8"?>
<!DOCTYPE svg PUBLIC "-//W3C//DTD SVG 1.1//EN" "http://www.w3.org/Graphics/SVG/1.1/DTD/svg11.dtd">
<svg version="1.2" width="279.91mm" height="279.91mm" viewBox="0 0 27991 27991" preserveAspectRatio="xMidYMid" fill-rule="evenodd" stroke-width="28.222" stroke-linejoin="round" xmlns="http://www.w3.org/2000/svg" xmlns:ooo="http://xml.openoffice.org/svg/export" xmlns:xlink="http://www.w3.org/1999/xlink" xmlns:presentation="http://sun.com/xmlns/staroffice/presentation" xmlns:smil="http://www.w3.org/2001/SMIL20/" xmlns:anim="urn:oasis:names:tc:opendocument:xmlns:animation:1.0" xmlns:svg="urn:oasis:names:tc:opendocument:xmlns:svg-compatible:1.0" xml:space="preserve">
 <defs class="ClipPathGroup">
  <clipPath id="presentation_clip_path" clipPathUnits="userSpaceOnUse">
   <rect x="0" y="0" width="27991" height="27991"/>
  </clipPath>
  <clipPath id="presentation_clip_path_shrink" clipPathUnits="userSpaceOnUse">
   <rect x="27" y="27" width="27936" height="27936"/>
  </clipPath>
 </defs>
 <defs class="TextShapeIndex">
  <g ooo:slide="id1" ooo:id-list="id3 id4 id5 id6 id7 id8 id9 id10 id11 id12 id13 id14 id15 id16 id17 id18 id19 id20 id21 id22 id23 id24 id25 id26 id27 id28 id29 id30"/>
 </defs>
 <defs class="EmbeddedBulletChars">
  <g id="bullet-char-template-57356" transform="scale(0.00048828125,-0.00048828125)">
   <path d="M 580,1141 L 1163,571 580,0 -4,571 580,1141 Z"/>
  </g>
  <g id="bullet-char-template-57354" transform="scale(0.00048828125,-0.00048828125)">
   <path d="M 8,1128 L 1137,1128 1137,0 8,0 8,1128 Z"/>
  </g>
  <g id="bullet-char-template-10146" transform="scale(0.00048828125,-0.00048828125)">
   <path d="M 174,0 L 602,739 174,1481 1456,739 174,0 Z M 1358,739 L 309,1346 659,739 1358,739 Z"/>
  </g>
  <g id="bullet-char-template-10132" transform="scale(0.00048828125,-0.00048828125)">
   <path d="M 2015,739 L 1276,0 717,0 1260,543 174,543 174,936 1260,936 717,1481 1274,1481 2015,739 Z"/>
  </g>
  <g id="bullet-char-template-10007" transform="scale(0.00048828125,-0.00048828125)">
   <path d="M 0,-2 C -7,14 -16,27 -25,37 L 356,567 C 262,823 215,952 215,954 215,979 228,992 255,992 264,992 276,990 289,987 310,991 331,999 354,1012 L 381,999 492,748 772,1049 836,1024 860,1049 C 881,1039 901,1025 922,1006 886,937 835,863 770,784 769,783 710,716 594,584 L 774,223 C 774,196 753,168 711,139 L 727,119 C 717,90 699,76 672,76 641,76 570,178 457,381 L 164,-76 C 142,-110 111,-127 72,-127 30,-127 9,-110 8,-76 1,-67 -2,-52 -2,-32 -2,-23 -1,-13 0,-2 Z"/>
  </g>
  <g id="bullet-char-template-10004" transform="scale(0.00048828125,-0.00048828125)">
   <path d="M 285,-33 C 182,-33 111,30 74,156 52,228 41,333 41,471 41,549 55,616 82,672 116,743 169,778 240,778 293,778 328,747 346,684 L 369,508 C 377,444 397,411 428,410 L 1163,1116 C 1174,1127 1196,1133 1229,1133 1271,1133 1292,1118 1292,1087 L 1292,965 C 1292,929 1282,901 1262,881 L 442,47 C 390,-6 338,-33 285,-33 Z"/>
  </g>
  <g id="bullet-char-template-9679" transform="scale(0.00048828125,-0.00048828125)">
   <path d="M 813,0 C 632,0 489,54 383,161 276,268 223,411 223,592 223,773 276,916 383,1023 489,1130 632,1184 813,1184 992,1184 1136,1130 1245,1023 1353,916 1407,772 1407,592 1407,412 1353,268 1245,161 1136,54 992,0 813,0 Z"/>
  </g>
  <g id="bullet-char-template-8226" transform="scale(0.00048828125,-0.00048828125)">
   <path d="M 346,457 C 273,457 209,483 155,535 101,586 74,649 74,723 74,796 101,859 155,911 209,963 273,989 346,989 419,989 480,963 531,910 582,859 608,796 608,723 608,648 583,586 532,535 482,483 420,457 346,457 Z"/>
  </g>
  <g id="bullet-char-template-8211" transform="scale(0.00048828125,-0.00048828125)">
   <path d="M -4,459 L 1135,459 1135,606 -4,606 -4,459 Z"/>
  </g>
  <g id="bullet-char-template-61548" transform="scale(0.00048828125,-0.00048828125)">
   <path d="M 173,740 C 173,903 231,1043 346,1159 462,1274 601,1332 765,1332 928,1332 1067,1274 1183,1159 1299,1043 1357,903 1357,740 1357,577 1299,437 1183,322 1067,206 928,148 765,148 601,148 462,206 346,322 231,437 173,577 173,740 Z"/>
  </g>
 </defs>
 <g>
  <g id="id2" class="Master_Slide">
   <g id="bg-id2" class="Background"/>
   <g id="bo-id2" class="BackgroundObjects"/>
  </g>
 </g>
 <g class="SlideGroup">
  <g>
   <g id="container-id1">
    <g id="id1" class="Slide" clip-path="url(#presentation_clip_path)">
     <g class="Page">
      <g class="com.sun.star.drawing.CustomShape">
       <g id="id3">
        <rect class="BoundingBox" stroke="none" fill="none" x="999" y="999" width="25993" height="25993"/>
        <path fill="rgb(0,124,255)" stroke="none" d="M 26991,13995 C 26991,16276 26391,18517 25250,20493 24109,22469 22469,24109 20493,25250 18517,26391 16276,26991 13995,26991 11714,26991 9473,26391 7497,25250 5521,24109 3881,22469 2740,20493 1599,18517 999,16276 999,13995 999,11714 1599,9473 2740,7497 3881,5521 5521,3881 7497,2740 9473,1599 11714,999 13995,999 16276,999 18517,1599 20493,2740 22469,3881 24109,5521 25250,7497 26391,9473 26991,11714 26991,13995 L 26991,13995 Z"/>
       </g>
      </g>
      <g class="com.sun.star.drawing.CustomShape">
       <g id="id4">
        <rect class="BoundingBox" stroke="none" fill="none" x="2652" y="5028" width="22687" height="17936"/>
        <path fill="none" stroke="rgb(255,255,255)" stroke-width="1411" stroke-linejoin="round" d="M 8676,5734 L 19313,5734 24632,13995 19313,22257 8676,22257 3358,13995 8676,5734 Z"/>
       </g>
      </g>
      <g class="Group">
       <g class="com.sun.star.drawing.CustomShape">
        <g id="id5">
         <rect class="BoundingBox" stroke="none" fill="none" x="7063" y="5155" width="5653" height="5659"/>
         <path fill="rgb(255,255,255)" stroke="none" d="M 12714,7955 C 12720,8451 12595,8941 12352,9373 12109,9806 11757,10167 11330,10419 10904,10672 10418,10808 9922,10813 9426,10818 8938,10692 8505,10448 8073,10205 7712,9851 7459,9424 7206,8996 7070,8510 7064,8013 7058,7517 7183,7027 7426,6595 7669,6162 8021,5801 8448,5549 8874,5296 9360,5160 9856,5155 10352,5150 10840,5276 11273,5520 11705,5763 12066,6117 12319,6544 12572,6972 12708,7458 12714,7955 L 12714,7955 Z"/>
        </g>
       </g>
       <g class="com.sun.star.drawing.CustomShape">
        <g id="id6">
         <rect class="BoundingBox" stroke="none" fill="none" x="9040" y="5943" width="1670" height="1678"/>
         <path fill="rgb(17,17,17)" stroke="none" d="M 10709,6781 C 10709,6928 10670,7073 10597,7200 10524,7327 10419,7433 10292,7507 10165,7580 10021,7619 9875,7619 9728,7619 9584,7580 9457,7507 9330,7433 9225,7327 9152,7200 9079,7073 9040,6928 9040,6781 9040,6634 9079,6489 9152,6362 9225,6235 9330,6129 9457,6055 9584,5982 9728,5943 9875,5943 10021,5943 10165,5982 10292,6055 10419,6129 10524,6235 10597,6362 10670,6489 10709,6634 10709,6781 L 10709,6781 Z"/>
        </g>
       </g>
       <g class="com.sun.star.drawing.CustomShape">
        <g id="id7">
         <rect class="BoundingBox" stroke="none" fill="none" x="8801" y="7881" width="2146" height="2147"/>
         <path fill="rgb(17,17,17)" stroke="none" d="M 8801,8954 L 8801,8954 C 8801,8766 8851,8581 8945,8418 9039,8254 9174,8119 9337,8025 9500,7931 9685,7881 9874,7881 L 9874,7881 9874,7881 C 10062,7881 10247,7931 10410,8025 10573,8119 10708,8254 10802,8418 10896,8581 10946,8766 10946,8954 L 10946,10027 8801,10027 8801,8954 Z"/>
        </g>
       </g>
      </g>
      <g class="Group">
       <g class="com.sun.star.drawing.CustomShape">
        <g id="id8">
         <rect class="BoundingBox" stroke="none" fill="none" x="15318" y="5155" width="5653" height="5659"/>
         <path fill="rgb(255,255,255)" stroke="none" d="M 20969,7955 C 20975,8451 20850,8941 20607,9373 20364,9806 20012,10167 19585,10419 19159,10672 18673,10808 18177,10813 17681,10818 17193,10692 16760,10448 16328,10205 15967,9851 15714,9424 15461,8996 15325,8510 15319,8013 15313,7517 15438,7027 15681,6595 15924,6162 16276,5801 16703,5549 17129,5296 17615,5160 18111,5155 18607,5150 19095,5276 19528,5520 19960,5763 20321,6117 20574,6544 20827,6972 20963,7458 20969,7955 L 20969,7955 Z"/>
        </g>
       </g>
       <g class="com.sun.star.drawing.CustomShape">
        <g id="id9">
         <rect class="BoundingBox" stroke="none" fill="none" x="17295" y="5943" width="1671" height="1678"/>
         <path fill="rgb(17,17,17)" stroke="none" d="M 18964,6781 C 18964,6928 18925,7073 18852,7200 18779,7327 18674,7433 18547,7507 18420,7580 18276,7619 18130,7619 17983,7619 17839,7580 17712,7507 17585,7433 17480,7327 17407,7200 17334,7073 17295,6928 17295,6781 17295,6634 17334,6489 17407,6362 17480,6235 17585,6129 17712,6055 17839,5982 17983,5943 18130,5943 18276,5943 18420,5982 18547,6055 18674,6129 18779,6235 18852,6362 18925,6489 18964,6634 18964,6781 L 18964,6781 Z"/>
        </g>
       </g>
       <g class="com.sun.star.drawing.CustomShape">
        <g id="id10">
         <rect class="BoundingBox" stroke="none" fill="none" x="17056" y="7881" width="2146" height="2147"/>
         <path fill="rgb(17,17,17)" stroke="none" d="M 17056,8954 L 17056,8954 C 17056,8766 17106,8581 17200,8418 17294,8254 17429,8119 17592,8025 17755,7931 17940,7881 18129,7881 L 18129,7881 18129,7881 C 18317,7881 18502,7931 18665,8025 18828,8119 18963,8254 19057,8418 19151,8581 19201,8766 19201,8954 L 19201,10027 17056,10027 17056,8954 Z"/>
        </g>
       </g>
      </g>
      <g class="Group">
       <g class="com.sun.star.drawing.CustomShape">
        <g id="id11">
         <rect class="BoundingBox" stroke="none" fill="none" x="7063" y="17220" width="5653" height="5659"/>
         <path fill="rgb(255,255,255)" stroke="none" d="M 12714,20020 C 12720,20516 12595,21006 12352,21438 12109,21871 11757,22232 11330,22484 10904,22737 10418,22873 9922,22878 9426,22883 8938,22757 8505,22513 8073,22270 7712,21916 7459,21489 7206,21061 7070,20575 7064,20078 7058,19582 7183,19092 7426,18660 7669,18227 8021,17866 8448,17614 8874,17361 9360,17225 9856,17220 10352,17215 10840,17341 11273,17585 11705,17828 12066,18182 12319,18609 12572,19037 12708,19523 12714,20020 L 12714,20020 Z"/>
        </g>
       </g>
       <g class="com.sun.star.drawing.CustomShape">
        <g id="id12">
         <rect class="BoundingBox" stroke="none" fill="none" x="9040" y="18008" width="1671" height="1678"/>
         <path fill="rgb(17,17,17)" stroke="none" d="M 10709,18846 C 10709,18993 10670,19138 10597,19265 10524,19392 10419,19498 10292,19572 10165,19645 10021,19684 9875,19684 9728,19684 9584,19645 9457,19572 9330,19498 9225,19392 9152,19265 9079,19138 9040,18993 9040,18846 9040,18699 9079,18554 9152,18427 9225,18300 9330,18194 9457,18120 9584,18047 9728,18008 9875,18008 10021,18008 10165,18047 10292,18120 10419,18194 10524,18300 10597,18427 10670,18554 10709,18699 10709,18846 L 10709,18846 Z"/>
        </g>
       </g>
       <g class="com.sun.star.drawing.CustomShape">
        <g id="id13">
         <rect class="BoundingBox" stroke="none" fill="none" x="8801" y="19946" width="2146" height="2147"/>
         <path fill="rgb(17,17,17)" stroke="none" d="M 8801,21019 L 8801,21019 C 8801,20831 8851,20646 8945,20483 9039,20319 9174,20184 9337,20090 9500,19996 9685,19946 9874,19946 L 9874,19946 9874,19946 C 10062,19946 10247,19996 10410,20090 10573,20184 10708,20319 10802,20483 10896,20646 10946,20831 10946,21019 L 10946,22092 8801,22092 8801,21019 Z"/>
        </g>
       </g>
      </g>
      <g class="Group">
       <g class="com.sun.star.drawing.CustomShape">
        <g id="id14">
         <rect class="BoundingBox" stroke="none" fill="none" x="15318" y="17220" width="5653" height="5659"/>
         <path fill="rgb(255,255,255)" stroke="none" d="M 20969,20020 C 20975,20516 20850,21006 20607,21438 20364,21871 20012,22232 19585,22484 19159,22737 18673,22873 18177,22878 17681,22883 17193,22757 16760,22513 16328,22270 15967,21916 15714,21489 15461,21061 15325,20575 15319,20078 15313,19582 15438,19092 15681,18660 15924,18227 16276,17866 16703,17614 17129,17361 17615,17225 18111,17220 18607,17215 19095,17341 19528,17585 19960,17828 20321,18182 20574,18609 20827,19037 20963,19523 20969,20020 L 20969,20020 Z"/>
        </g>
       </g>
       <g class="com.sun.star.drawing.CustomShape">
        <g id="id15">
         <rect class="BoundingBox" stroke="none" fill="none" x="17295" y="18008" width="1671" height="1678"/>
         <path fill="rgb(17,17,17)" stroke="none" d="M 18964,18846 C 18964,18993 18925,19138 18852,19265 18779,19392 18674,19498 18547,19572 18420,19645 18276,19684 18130,19684 17983,19684 17839,19645 17712,19572 17585,19498 17480,19392 17407,19265 17334,19138 17295,18993 17295,18846 17295,18699 17334,18554 17407,18427 17480,18300 17585,18194 17712,18120 17839,18047 17983,18008 18130,18008 18276,18008 18420,18047 18547,18120 18674,18194 18779,18300 18852,18427 18925,18554 18964,18699 18964,18846 L 18964,18846 Z"/>
        </g>
       </g>
       <g class="com.sun.star.drawing.CustomShape">
        <g id="id16">
         <rect class="BoundingBox" stroke="none" fill="none" x="17056" y="19946" width="2146" height="2147"/>
         <path fill="rgb(17,17,17)" stroke="none" d="M 17056,21019 L 17056,21019 C 17056,20831 17106,20646 17200,20483 17294,20319 17429,20184 17592,20090 17755,19996 17940,19946 18129,19946 L 18129,19946 18129,19946 C 18317,19946 18502,19996 18665,20090 18828,20184 18963,20319 19057,20483 19151,20646 19201,20831 19201,21019 L 19201,22092 17056,22092 17056,21019 Z"/>
        </g>
       </g>
      </g>
      <g class="Group">
       <g class="com.sun.star.drawing.CustomShape">
        <g id="id17">
         <rect class="BoundingBox" stroke="none" fill="none" x="3253" y="11188" width="5653" height="5659"/>
         <path fill="rgb(255,255,255)" stroke="none" d="M 8904,13988 C 8910,14484 8785,14974 8542,15406 8299,15839 7947,16200 7520,16452 7094,16705 6608,16841 6112,16846 5616,16851 5128,16725 4695,16481 4263,16238 3902,15884 3649,15457 3396,15029 3260,14543 3254,14046 3248,13550 3373,13060 3616,12628 3859,12195 4211,11834 4638,11582 5064,11329 5550,11193 6046,11188 6542,11183 7030,11309 7463,11553 7895,11796 8256,12150 8509,12577 8762,13005 8898,13491 8904,13988 L 8904,13988 Z"/>
        </g>
       </g>
       <g class="com.sun.star.drawing.CustomShape">
        <g id="id18">
         <rect class="BoundingBox" stroke="none" fill="none" x="5230" y="11976" width="1670" height="1678"/>
         <path fill="rgb(17,17,17)" stroke="none" d="M 6899,12814 C 6899,12961 6860,13106 6787,13233 6714,13360 6609,13466 6482,13540 6355,13613 6211,13652 6065,13652 5918,13652 5774,13613 5647,13540 5520,13466 5415,13360 5342,13233 5269,13106 5230,12961 5230,12814 5230,12667 5269,12522 5342,12395 5415,12268 5520,12162 5647,12088 5774,12015 5918,11976 6065,11976 6211,11976 6355,12015 6482,12088 6609,12162 6714,12268 6787,12395 6860,12522 6899,12667 6899,12814 L 6899,12814 Z"/>
        </g>
       </g>
       <g class="com.sun.star.drawing.CustomShape">
        <g id="id19">
         <rect class="BoundingBox" stroke="none" fill="none" x="4991" y="13914" width="2146" height="2147"/>
         <path fill="rgb(17,17,17)" stroke="none" d="M 4991,14987 L 4991,14987 C 4991,14799 5041,14614 5135,14451 5229,14287 5364,14152 5527,14058 5690,13964 5875,13914 6064,13914 L 6064,13914 6064,13914 C 6252,13914 6437,13964 6600,14058 6763,14152 6898,14287 6992,14451 7086,14614 7136,14799 7136,14987 L 7136,16060 4991,16060 4991,14987 Z"/>
        </g>
       </g>
      </g>
      <g class="Group">
       <g class="com.sun.star.drawing.CustomShape">
        <g id="id20">
         <rect class="BoundingBox" stroke="none" fill="none" x="19128" y="11188" width="5653" height="5659"/>
         <path fill="rgb(255,255,255)" stroke="none" d="M 24779,13988 C 24785,14484 24660,14974 24417,15406 24174,15839 23822,16200 23395,16452 22969,16705 22483,16841 21987,16846 21491,16851 21003,16725 20570,16481 20138,16238 19777,15884 19524,15457 19271,15029 19135,14543 19129,14046 19123,13550 19248,13060 19491,12628 19734,12195 20086,11834 20513,11582 20939,11329 21425,11193 21921,11188 22417,11183 22905,11309 23338,11553 23770,11796 24131,12150 24384,12577 24637,13005 24773,13491 24779,13988 L 24779,13988 Z"/>
        </g>
       </g>
       <g class="com.sun.star.drawing.CustomShape">
        <g id="id21">
         <rect class="BoundingBox" stroke="none" fill="none" x="21105" y="11976" width="1670" height="1678"/>
         <path fill="rgb(17,17,17)" stroke="none" d="M 22774,12814 C 22774,12961 22735,13106 22662,13233 22589,13360 22484,13466 22357,13540 22230,13613 22086,13652 21940,13652 21793,13652 21649,13613 21522,13540 21395,13466 21290,13360 21217,13233 21144,13106 21105,12961 21105,12814 21105,12667 21144,12522 21217,12395 21290,12268 21395,12162 21522,12088 21649,12015 21793,11976 21940,11976 22086,11976 22230,12015 22357,12088 22484,12162 22589,12268 22662,12395 22735,12522 22774,12667 22774,12814 L 22774,12814 Z"/>
        </g>
       </g>
       <g class="com.sun.star.drawing.CustomShape">
        <g id="id22">
         <rect class="BoundingBox" stroke="none" fill="none" x="20866" y="13914" width="2146" height="2147"/>
         <path fill="rgb(17,17,17)" stroke="none" d="M 20866,14987 L 20866,14987 C 20866,14799 20916,14614 21010,14451 21104,14287 21239,14152 21402,14058 21565,13964 21750,13914 21938,13914 L 21938,13914 21938,13914 C 22127,13914 22312,13964 22475,14058 22638,14152 22773,14287 22867,14451 22961,14614 23011,14799 23011,14987 L 23011,16060 20866,16060 20866,14987 Z"/>
        </g>
       </g>
      </g>
      <g class="Group">
       <g class="com.sun.star.drawing.CustomShape">
        <g id="id23">
         <rect class="BoundingBox" stroke="none" fill="none" x="10471" y="13105" width="7049" height="2539"/>
         <path fill="rgb(17,17,17)" stroke="none" d="M 10894,13105 L 10894,13105 C 10820,13105 10747,13125 10682,13162 10618,13199 10565,13252 10528,13317 10491,13381 10471,13454 10471,13528 L 10471,15220 10471,15220 C 10471,15294 10491,15367 10528,15431 10565,15496 10618,15549 10682,15586 10747,15623 10820,15643 10894,15643 L 17096,15643 17096,15643 C 17170,15643 17243,15623 17308,15586 17372,15549 17425,15496 17462,15431 17499,15367 17519,15294 17519,15220 L 17519,13528 17519,13528 17519,13528 C 17519,13454 17499,13381 17462,13317 17425,13252 17372,13199 17308,13162 17243,13125 17170,13105 17096,13105 L 10894,13105 Z"/>
        </g>
       </g>
       <g class="com.sun.star.drawing.CustomShape">
        <g id="id24">
         <rect class="BoundingBox" stroke="none" fill="none" x="10858" y="10954" width="6275" height="2330"/>
         <path fill="none" stroke="rgb(17,17,17)" stroke-width="353" stroke-linejoin="round" d="M 16955,13106 L 11035,13106 12073,11131 15918,11131 16955,13106 Z"/>
        </g>
       </g>
       <g class="com.sun.star.drawing.CustomShape">
        <g id="id25">
         <rect class="BoundingBox" stroke="none" fill="none" x="10894" y="13669" width="1129" height="847"/>
         <path fill="rgb(255,255,255)" stroke="none" d="M 11075,14515 L 11075,14515 C 11043,14515 11012,14495 10985,14458 10957,14421 10934,14368 10918,14304 10902,14239 10894,14166 10894,14092 L 10894,14092 C 10894,14018 10902,13945 10918,13881 10934,13816 10957,13763 10985,13726 11012,13689 11043,13669 11075,13669 L 11840,13669 11841,13669 C 11873,13669 11904,13689 11931,13726 11959,13763 11982,13816 11998,13881 12014,13945 12022,14018 12022,14092 L 12022,14092 12022,14092 C 12022,14166 12014,14239 11998,14304 11982,14368 11959,14421 11931,14458 11904,14495 11873,14515 11841,14515 L 11075,14515 Z"/>
        </g>
       </g>
       <g class="com.sun.star.drawing.CustomShape">
        <g id="id26">
         <rect class="BoundingBox" stroke="none" fill="none" x="15969" y="13669" width="1130" height="848"/>
         <path fill="rgb(255,255,255)" stroke="none" d="M 16150,14515 L 16150,14515 C 16119,14515 16087,14495 16060,14458 16032,14421 16009,14368 15993,14304 15977,14239 15969,14166 15969,14092 L 15969,14092 C 15969,14018 15977,13945 15993,13881 16009,13816 16032,13763 16060,13726 16087,13689 16119,13669 16150,13669 L 16916,13669 16917,13669 C 16948,13669 16980,13689 17007,13726 17035,13763 17058,13816 17074,13881 17090,13945 17098,14018 17098,14092 L 17098,14092 17098,14092 C 17098,14166 17090,14239 17074,14304 17058,14368 17035,14421 17007,14458 16980,14495 16948,14515 16917,14515 L 16150,14515 Z"/>
        </g>
       </g>
       <g class="com.sun.star.drawing.CustomShape">
        <g id="id27">
         <rect class="BoundingBox" stroke="none" fill="none" x="14705" y="11696" width="882" height="886"/>
         <path fill="rgb(17,17,17)" stroke="none" d="M 15586,12139 C 15586,12216 15566,12292 15527,12360 15488,12427 15433,12483 15366,12522 15299,12561 15223,12581 15146,12581 15068,12581 14992,12561 14925,12522 14858,12483 14803,12427 14764,12360 14725,12292 14705,12216 14705,12139 14705,12061 14725,11985 14764,11917 14803,11850 14858,11794 14925,11755 14992,11716 15068,11696 15146,11696 15223,11696 15299,11716 15366,11755 15433,11794 15488,11850 15527,11917 15566,11985 15586,12061 15586,12139 L 15586,12139 Z"/>
        </g>
       </g>
       <g class="com.sun.star.drawing.CustomShape">
        <g id="id28">
         <rect class="BoundingBox" stroke="none" fill="none" x="14578" y="12718" width="1133" height="1133"/>
         <path fill="rgb(17,17,17)" stroke="none" d="M 14578,13284 L 14578,13284 C 14578,13185 14604,13087 14654,13001 14704,12915 14775,12844 14861,12794 14947,12744 15045,12718 15144,12718 L 15144,12718 15144,12718 C 15243,12718 15341,12744 15427,12794 15513,12844 15584,12915 15634,13001 15684,13087 15710,13185 15710,13284 L 15710,13850 14578,13850 14578,13284 Z"/>
        </g>
       </g>
       <g class="com.sun.star.drawing.CustomShape">
        <g id="id29">
         <rect class="BoundingBox" stroke="none" fill="none" x="10841" y="15730" width="1131" height="1131"/>
         <path fill="rgb(17,17,17)" stroke="none" d="M 11023,16860 L 11023,16860 C 10992,16860 10960,16834 10933,16784 10905,16735 10882,16664 10866,16578 10850,16492 10842,16395 10842,16295 L 10842,16295 C 10842,16196 10850,16099 10866,16013 10882,15927 10905,15856 10933,15807 10960,15757 10992,15731 11023,15731 L 11789,15731 11790,15731 C 11821,15731 11853,15757 11880,15807 11908,15856 11931,15927 11947,16013 11963,16099 11971,16196 11971,16295 L 11971,16295 11971,16295 C 11971,16395 11963,16492 11947,16578 11931,16664 11908,16735 11880,16784 11853,16834 11821,16860 11790,16860 L 11023,16860 Z"/>
        </g>
       </g>
       <g class="com.sun.star.drawing.CustomShape">
        <g id="id30">
         <rect class="BoundingBox" stroke="none" fill="none" x="16019" y="15731" width="1130" height="1130"/>
         <path fill="rgb(17,17,17)" stroke="none" d="M 16201,16860 L 16201,16860 C 16169,16860 16138,16834 16111,16784 16083,16735 16060,16664 16044,16578 16028,16492 16020,16395 16020,16296 L 16020,16296 C 16020,16196 16028,16099 16044,16013 16060,15927 16083,15856 16111,15807 16138,15757 16169,15731 16201,15731 L 16966,15731 16967,15731 C 16999,15731 17030,15757 17057,15807 17085,15856 17108,15927 17124,16013 17140,16099 17148,16196 17148,16296 L 17148,16296 17148,16296 C 17148,16395 17140,16492 17124,16578 17108,16664 17085,16735 17057,16784 17030,16834 16999,16860 16967,16860 L 16201,16860 Z"/>
        </g>
       </g>
      </g>
     </g>
    </g>
   </g>
  </g>
 </g>
</svg>